<svg width="100%" height="100%" viewBox="0 0 15 15" fill="none" xmlns="http://www.w3.org/2000/svg">
<path fill-rule="evenodd" clip-rule="evenodd" d="M7.23998 1.4757C7.39744 1.37073 7.60256 1.37073 7.76002 1.4757L13.385 5.2257C13.5154 5.31264 13.5938 5.45899 13.5938 5.61572V11.7095C13.5938 11.9581 13.495 12.1966 13.3192 12.3724C13.1433 12.5482 12.9049 12.647 12.6562 12.647H2.34375C2.09511 12.647 1.85665 12.5482 1.68084 12.3724C1.50502 12.1966 1.40625 11.9581 1.40625 11.7095V5.61572C1.40625 5.45899 1.48458 5.31264 1.61498 5.2257L7.23998 1.4757ZM2.34375 5.86659V11.7095H12.6562V5.86659L7.5 2.42909L2.34375 5.86659Z" fill="#B2B2B2"/>
<path fill-rule="evenodd" clip-rule="evenodd" d="M1.49343 5.34353C1.64378 5.13278 1.93651 5.08381 2.14726 5.23416L6.62471 8.42826H8.37537L12.8528 5.23416C13.0636 5.08381 13.3563 5.13278 13.5066 5.34353C13.657 5.55429 13.608 5.84702 13.3973 5.99736L8.79765 9.27861C8.7182 9.33529 8.62303 9.36576 8.52543 9.36576H6.47465C6.37704 9.36576 6.28188 9.33529 6.20242 9.27861L1.60281 5.99736C1.39206 5.84702 1.34309 5.55429 1.49343 5.34353Z" fill="#B2B2B2"/>
</svg>
