<svg width="100%" height="100%" viewBox="0 0 15 15" fill="none" xmlns="http://www.w3.org/2000/svg">
<path fill-rule="evenodd" clip-rule="evenodd" d="M1.40625 3.27197C1.40625 3.01309 1.61612 2.80322 1.875 2.80322H13.125C13.3839 2.80322 13.5938 3.01309 13.5938 3.27197V11.2407C13.5938 11.4894 13.495 11.7278 13.3192 11.9036C13.1433 12.0795 12.9049 12.1782 12.6562 12.1782H2.34375C2.09511 12.1782 1.85665 12.0795 1.68084 11.9036C1.50502 11.7278 1.40625 11.4894 1.40625 11.2407V3.27197ZM2.34375 3.74072V11.2407H12.6562V3.74072H2.34375Z" fill="black"/>
<path fill-rule="evenodd" clip-rule="evenodd" d="M1.52946 2.95523C1.7044 2.76439 2.00091 2.7515 2.19175 2.92643L7.5 7.79233L12.8083 2.92643C12.9991 2.7515 13.2956 2.76439 13.4705 2.95523C13.6455 3.14607 13.6326 3.44258 13.4417 3.61752L7.81675 8.77377C7.63754 8.93805 7.36247 8.93805 7.18326 8.77377L1.55826 3.61752C1.36742 3.44258 1.35453 3.14607 1.52946 2.95523Z" fill="black"/>
</svg>
